<svg width="690" height="740" viewBox="0 0 690 740" fill="none" xmlns="http://www.w3.org/2000/svg">
<g clip-path="url(#clip0_31897_29309)">
<path d="M-1.45234 746.885H3.77062L1.15914 23.9344L-1.45234 746.885Z" fill="#077BBF" fill-opacity="0.12"/>
<path d="M5.80455 746.885H10.8768L8.36581 23.9344L5.80455 746.885Z" fill="#077BBF" fill-opacity="0.12"/>
<path d="M13.0866 746.885H17.9831L15.5725 23.9344L13.0866 746.885Z" fill="#077BBF" fill-opacity="0.12"/>
<path d="M20.3686 746.885H25.0893L22.7792 23.9344L20.3686 746.885Z" fill="#077BBF" fill-opacity="0.12"/>
<path d="M27.6255 746.885H32.1955L29.9858 23.9344L27.6255 746.885Z" fill="#077BBF" fill-opacity="0.12"/>
<path d="M34.9075 746.885H39.3269L37.1925 23.9344L34.9075 746.885Z" fill="#077BBF" fill-opacity="0.12"/>
<path d="M42.1895 746.885H46.4331L44.3741 23.9344L42.1895 746.885Z" fill="#077BBF" fill-opacity="0.12"/>
<path d="M49.4715 746.885H53.5393L51.5807 23.9344L49.4715 746.885Z" fill="#077BBF" fill-opacity="0.12"/>
<path d="M56.7284 746.885H60.6456L58.7874 23.9344L56.7284 746.885Z" fill="#077BBF" fill-opacity="0.12"/>
<path d="M64.0104 746.885H67.7518L65.9941 23.9344L64.0104 746.885Z" fill="#077BBF" fill-opacity="0.12"/>
<path d="M71.2924 746.885H74.858L73.2008 23.9344L71.2924 746.885Z" fill="#077BBF" fill-opacity="0.12"/>
<path d="M78.5493 746.885H81.9643L80.4074 23.9344L78.5493 746.885Z" fill="#077BBF" fill-opacity="0.12"/>
<path d="M85.8313 746.885H89.0705L87.6141 23.9344L85.8313 746.885Z" fill="#077BBF" fill-opacity="0.12"/>
<path d="M93.1133 746.885H96.1767L94.7957 23.9344L93.1133 746.885Z" fill="#077BBF" fill-opacity="0.12"/>
<path d="M100.37 746.885H103.283L102.002 23.9344L100.37 746.885Z" fill="#077BBF" fill-opacity="0.12"/>
<path d="M107.652 746.885H110.389L109.209 23.9344L107.652 746.885Z" fill="#077BBF" fill-opacity="0.12"/>
<path d="M114.934 746.885H117.495L116.416 23.9344L114.934 746.885Z" fill="#077BBF" fill-opacity="0.12"/>
<path d="M122.216 746.885H124.627L123.622 23.9344L122.216 746.885Z" fill="#077BBF" fill-opacity="0.12"/>
<path d="M129.473 746.885H131.733L130.829 23.9344L129.473 746.885Z" fill="#077BBF" fill-opacity="0.12"/>
<path d="M136.755 746.885H138.839L138.011 23.9344L136.755 746.885Z" fill="#077BBF" fill-opacity="0.12"/>
<path d="M144.037 746.885H145.945L145.217 23.9344L144.037 746.885Z" fill="#077BBF" fill-opacity="0.12"/>
<path d="M151.294 746.885H153.052L152.424 23.9344L151.294 746.885Z" fill="#077BBF" fill-opacity="0.12"/>
<path d="M158.576 746.885H160.158L159.631 23.9344L158.576 746.885Z" fill="#077BBF" fill-opacity="0.12"/>
<path d="M165.858 746.885H167.264L166.837 23.9344L165.858 746.885Z" fill="#077BBF" fill-opacity="0.12"/>
<path d="M173.115 746.885H174.37L174.044 23.9344L173.115 746.885Z" fill="#077BBF" fill-opacity="0.12"/>
<path d="M181.251 23.9344L180.397 746.885H181.477L181.251 23.9344Z" fill="#077BBF" fill-opacity="0.12"/>
</g>
<g clip-path="url(#clip1_31897_29309)">
<path d="M433.533 554L437.095 746.686L430.005 746.686L433.533 554Z" fill="#E5221B" fill-opacity="0.5"/>
<path d="M427.531 746.686L420.672 746.686L424.102 554L427.531 746.686Z" fill="#E5221B" fill-opacity="0.5"/>
<path d="M418.001 746.686L411.34 746.686L414.638 554L418.001 746.686Z" fill="#E5221B" fill-opacity="0.5"/>
<path d="M408.438 746.686L402.008 746.686L405.174 554L408.438 746.686Z" fill="#E5221B" fill-opacity="0.5"/>
<path d="M398.875 746.686L392.676 746.686L395.709 554L398.875 746.686Z" fill="#E5221B" fill-opacity="0.5"/>
<path d="M389.345 746.686L383.343 746.686L386.245 554L389.345 746.686Z" fill="#E5221B" fill-opacity="0.5"/>
<path d="M379.782 746.686L373.978 746.686L376.781 554L379.782 746.686Z" fill="#E5221B" fill-opacity="0.5"/>
<path d="M370.219 746.686L364.646 746.686L367.35 554L370.219 746.686Z" fill="#E5221B" fill-opacity="0.5"/>
<path d="M360.656 746.686L355.313 746.686L357.886 554L360.656 746.686Z" fill="#E5221B" fill-opacity="0.5"/>
<path d="M351.125 746.686L345.981 746.686L348.421 554L351.125 746.686Z" fill="#E5221B" fill-opacity="0.5"/>
<path d="M341.562 746.686L336.649 746.686L338.957 554L341.562 746.686Z" fill="#E5221B" fill-opacity="0.5"/>
<path d="M331.999 746.686L327.317 746.686L329.493 554L331.999 746.686Z" fill="#E5221B" fill-opacity="0.5"/>
<path d="M322.469 746.686L317.984 746.686L320.029 554L322.469 746.686Z" fill="#E5221B" fill-opacity="0.5"/>
<path d="M312.906 746.686L308.652 746.686L310.565 554L312.906 746.686Z" fill="#E5221B" fill-opacity="0.5"/>
<path d="M303.343 746.686L299.32 746.686L301.134 554L303.343 746.686Z" fill="#E5221B" fill-opacity="0.5"/>
<path d="M293.813 746.686L289.988 746.686L291.669 554L293.813 746.686Z" fill="#E5221B" fill-opacity="0.5"/>
<path d="M284.25 746.686L280.655 746.686L282.205 554L284.25 746.686Z" fill="#E5221B" fill-opacity="0.25"/>
<path d="M274.687 746.686L271.323 746.686L272.741 554L274.687 746.686Z" fill="#E5221B" fill-opacity="0.25"/>
<path d="M265.123 746.686L261.991 746.686L263.277 554L265.123 746.686Z" fill="#E5221B" fill-opacity="0.25"/>
<path d="M255.593 746.686L252.625 746.686L253.813 554L255.593 746.686Z" fill="#E5221B" fill-opacity="0.25"/>
<path d="M246.03 746.686L243.293 746.686L244.348 554L246.03 746.686Z" fill="#E5221B" fill-opacity="0.25"/>
<path d="M236.467 746.686L233.961 746.686L234.917 554L236.467 746.686Z" fill="#E5221B" fill-opacity="0.25"/>
<path d="M226.937 746.686L224.629 746.686L225.453 554L226.937 746.686Z" fill="#E5221B" fill-opacity="0.25"/>
<path d="M217.374 746.686L215.296 746.686L215.989 554L217.374 746.686Z" fill="#E5221B" fill-opacity="0.25"/>
<path d="M207.811 746.686L205.964 746.686L206.525 554L207.811 746.686Z" fill="#E5221B" fill-opacity="0.25"/>
<path d="M198.281 746.686L196.632 746.686L197.061 554L198.281 746.686Z" fill="#E5221B" fill-opacity="0.25"/>
<path d="M187.596 554L188.718 746.686L187.3 746.686L187.596 554Z" fill="#E5221B" fill-opacity="0.25"/>
</g>
<g clip-path="url(#clip2_31897_29309)">
<path d="M686.439 -1.92317e-07L690 746.686L682.91 746.686L686.439 -1.92317e-07Z" fill="#E5221B" fill-opacity="0.5"/>
<path d="M680.437 746.686L673.578 746.686L677.007 -1.85194e-07L680.437 746.686Z" fill="#E5221B" fill-opacity="0.5"/>
<path d="M670.907 746.686L664.246 746.686L667.543 -1.81633e-07L670.907 746.686Z" fill="#E5221B" fill-opacity="0.5"/>
<path d="M661.344 746.686L654.913 746.686L658.079 -1.76291e-07L661.344 746.686Z" fill="#E5221B" fill-opacity="0.5"/>
<path d="M651.781 746.686L645.581 746.686L648.615 -1.70949e-07L651.781 746.686Z" fill="#E5221B" fill-opacity="0.5"/>
<path d="M642.25 746.686L636.249 746.686L639.151 -1.67387e-07L642.25 746.686Z" fill="#E5221B" fill-opacity="0.5"/>
<path d="M632.687 746.686L626.883 746.686L629.687 -1.62045e-07L632.687 746.686Z" fill="#E5221B" fill-opacity="0.5"/>
<path d="M623.124 746.686L617.551 746.686L620.255 -1.54922e-07L623.124 746.686Z" fill="#E5221B" fill-opacity="0.5"/>
<path d="M613.561 746.686L608.219 746.686L610.791 -1.4958e-07L613.561 746.686Z" fill="#E5221B" fill-opacity="0.5"/>
<path d="M604.031 746.686L598.887 746.686L601.327 -1.46019e-07L604.031 746.686Z" fill="#E5221B" fill-opacity="0.5"/>
<path d="M594.468 746.686L589.554 746.686L591.863 -1.40677e-07L594.468 746.686Z" fill="#E5221B" fill-opacity="0.5"/>
<path d="M584.905 746.686L580.222 746.686L582.399 -1.35334e-07L584.905 746.686Z" fill="#E5221B" fill-opacity="0.5"/>
<path d="M575.375 746.686L570.89 746.686L572.934 -1.31773e-07L575.375 746.686Z" fill="#E5221B" fill-opacity="0.5"/>
<path d="M565.812 746.686L561.558 746.686L563.47 -1.26431e-07L565.812 746.686Z" fill="#E5221B" fill-opacity="0.5"/>
<path d="M556.248 746.686L552.225 746.686L554.039 -1.19308e-07L556.248 746.686Z" fill="#E5221B" fill-opacity="0.5"/>
<path d="M546.718 746.686L542.893 746.686L544.575 -1.15746e-07L546.718 746.686Z" fill="#E5221B" fill-opacity="0.5"/>
<path d="M537.155 746.686L533.561 746.686L535.111 -1.10405e-07L537.155 746.686Z" fill="#E5221B" fill-opacity="0.5"/>
<path d="M527.592 746.686L524.228 746.686L525.647 -1.05062e-07L527.592 746.686Z" fill="#E5221B" fill-opacity="0.5"/>
<path d="M518.029 746.686L514.896 746.686L516.182 -9.97196e-08L518.029 746.686Z" fill="#E5221B" fill-opacity="0.5"/>
<path d="M508.499 746.686L505.531 746.686L506.718 -9.61588e-08L508.499 746.686Z" fill="#E5221B" fill-opacity="0.5"/>
<path d="M498.936 746.686L496.199 746.686L497.254 -9.08169e-08L498.936 746.686Z" fill="#E5221B" fill-opacity="0.5"/>
<path d="M489.373 746.686L486.866 746.686L487.823 -8.36939e-08L489.373 746.686Z" fill="#E5221B" fill-opacity="0.5"/>
<path d="M479.842 746.686L477.534 746.686L478.359 -8.01323e-08L479.842 746.686Z" fill="#E5221B" fill-opacity="0.5"/>
<path d="M470.279 746.686L468.202 746.686L468.894 -7.4791e-08L470.279 746.686Z" fill="#E5221B" fill-opacity="0.5"/>
<path d="M460.716 746.686L458.87 746.686L459.43 -6.94478e-08L460.716 746.686Z" fill="#E5221B" fill-opacity="0.5"/>
<path d="M451.186 746.686L449.537 746.686L449.966 -6.5887e-08L451.186 746.686Z" fill="#E5221B" fill-opacity="0.5"/>
<path d="M440.502 -6.05451e-08L441.623 746.686L440.205 746.686L440.502 -6.05451e-08Z" fill="#E5221B" fill-opacity="0.5"/>
</g>
<defs>
<clipPath id="clip0_31897_29309">
<rect width="190.211" height="722.951" fill="white" transform="translate(-8.73434 23.9344)"/>
</clipPath>
<clipPath id="clip1_31897_29309">
<rect width="249.795" height="192.686" fill="white" transform="translate(437.095 746.686) rotate(-180)"/>
</clipPath>
<clipPath id="clip2_31897_29309">
<rect width="249.795" height="746.686" fill="white" transform="translate(690 746.686) rotate(-180)"/>
</clipPath>
</defs>
</svg>
